<svg version="1.1" xmlns="http://www.w3.org/2000/svg" viewBox="0 0 348.39881569172724 297.697379707379" width="348.39881569172724" height="297.697379707379">
  <!-- svg-source:excalidraw -->
  
  <defs>
    <style class="style-fonts">
      @font-face {
        font-family: "Virgil";
        src: url("https://excalidraw.com/Virgil.woff2");
      }
      @font-face {
        font-family: "Cascadia";
        src: url("https://excalidraw.com/Cascadia.woff2");
      }
      @font-face {
        font-family: "Assistant";
        src: url("https://excalidraw.com/Assistant-Regular.woff2");
      }
    </style>
    
  </defs>
  <rect x="0" y="0" width="348.39881569172724" height="297.697379707379" fill="#ffffff"></rect><g transform="translate(26.38068262679485 167.7584866913296) rotate(0 137.109375 21.599999999999994)"><text x="0" y="0" font-family="Cascadia, Segoe UI Emoji" font-size="36px" fill="#1e1e1e" text-anchor="start" style="white-space: pre;" direction="ltr" dominant-baseline="text-before-edge">5295484712723</text></g><g transform="translate(27.154187573417516 202.18020465297644) rotate(0 137.109375 21.599999999999994)"><text x="0" y="0" font-family="Cascadia, Segoe UI Emoji" font-size="36px" fill="#1e1e1e" text-anchor="start" style="white-space: pre;" direction="ltr" dominant-baseline="text-before-edge">4059292981892</text></g><g stroke-linecap="round"><g transform="translate(24.092578263591918 247.62108295794627) rotate(0 139.36644768482503 0)"><path d="M-1.02 -1.17 C45.37 -1.21, 232.55 -0.23, 279.34 0.02 M0.64 0.83 C46.85 0.97, 232.25 1.41, 278.72 1.57" stroke="#1e1e1e" stroke-width="2" fill="none"></path></g></g><mask></mask><g transform="translate(317.6852241133687 227.3577868486825) rotate(0 10.356795789179273 -0.6754432036420894)" stroke="none"><path fill="#1e1e1e" d="M -0.15,-0.67 Q -0.15,-0.67 0.94,-1.24 2.04,-1.80 2.98,-1.94 3.93,-2.07 4.73,-2.13 5.54,-2.20 6.44,-2.35 7.35,-2.50 8.06,-2.58 8.78,-2.65 9.62,-2.69 10.47,-2.73 11.34,-2.74 12.21,-2.76 13.10,-2.77 13.99,-2.78 14.76,-2.79 15.52,-2.80 16.24,-2.80 16.95,-2.80 18.62,-2.40 20.28,-2.00 20.38,-1.99 20.49,-1.97 20.58,-1.92 20.68,-1.87 20.75,-1.79 20.82,-1.71 20.87,-1.62 20.91,-1.52 20.92,-1.42 20.94,-1.31 20.91,-1.21 20.89,-1.10 20.84,-1.01 20.78,-0.92 20.70,-0.85 20.62,-0.78 20.52,-0.74 20.42,-0.70 20.32,-0.70 20.21,-0.69 20.11,-0.72 20.00,-0.75 19.92,-0.81 19.83,-0.87 19.76,-0.95 19.70,-1.04 19.67,-1.14 19.63,-1.24 19.63,-1.35 19.63,-1.45 19.67,-1.55 19.70,-1.65 19.76,-1.74 19.83,-1.82 19.92,-1.88 20.00,-1.94 20.11,-1.97 20.21,-2.00 20.32,-1.99 20.42,-1.99 20.52,-1.95 20.62,-1.91 20.70,-1.84 20.78,-1.77 20.84,-1.68 20.89,-1.59 20.91,-1.49 20.94,-1.38 20.92,-1.28 20.91,-1.17 20.87,-1.07 20.82,-0.98 20.75,-0.90 20.68,-0.82 20.58,-0.77 20.49,-0.72 20.38,-0.71 20.28,-0.69 20.28,-0.69 20.28,-0.69 18.62,-0.29 16.95,0.10 16.24,0.10 15.53,0.10 14.77,0.10 14.01,0.10 13.13,0.10 12.25,0.09 11.41,0.10 10.56,0.10 9.80,0.12 9.04,0.13 8.41,0.19 7.78,0.24 6.74,0.39 5.70,0.53 4.98,0.56 4.26,0.59 3.44,0.68 2.61,0.77 1.38,0.72 0.15,0.67 0.06,0.68 -0.01,0.69 -0.09,0.67 -0.18,0.66 -0.25,0.63 -0.33,0.60 -0.40,0.55 -0.47,0.50 -0.52,0.44 -0.57,0.37 -0.61,0.30 -0.65,0.23 -0.67,0.14 -0.68,0.06 -0.68,-0.01 -0.68,-0.09 -0.66,-0.17 -0.64,-0.26 -0.60,-0.33 -0.56,-0.40 -0.50,-0.46 -0.44,-0.52 -0.37,-0.57 -0.30,-0.61 -0.22,-0.64 -0.15,-0.67 -0.15,-0.67 L -0.15,-0.67 Z"></path></g><g transform="translate(327.59172443345324 216.10040012131378) rotate(0 1.1257386727368726 9.90650032008449)" stroke="none"><path fill="#1e1e1e" d="M 0.66,-0.16 Q 0.66,-0.16 1.22,0.79 1.78,1.75 2.03,2.85 2.29,3.96 2.41,5.01 2.53,6.06 2.71,6.94 2.88,7.82 2.96,8.53 3.05,9.23 3.21,10.26 3.38,11.28 3.45,12.03 3.53,12.77 3.57,13.50 3.60,14.23 3.60,15.06 3.60,15.89 2.84,17.80 2.07,19.71 2.02,19.80 1.97,19.90 1.90,19.97 1.82,20.04 1.72,20.09 1.63,20.14 1.52,20.15 1.42,20.16 1.31,20.14 1.21,20.12 1.12,20.07 1.02,20.02 0.95,19.94 0.88,19.86 0.84,19.76 0.80,19.66 0.79,19.55 0.79,19.45 0.81,19.35 0.84,19.24 0.90,19.15 0.96,19.06 1.04,19.00 1.12,18.93 1.22,18.90 1.32,18.86 1.43,18.86 1.54,18.86 1.64,18.89 1.74,18.92 1.82,18.99 1.91,19.05 1.97,19.13 2.03,19.22 2.06,19.32 2.09,19.43 2.09,19.53 2.08,19.64 2.05,19.74 2.01,19.84 1.94,19.92 1.87,20.00 1.78,20.06 1.69,20.11 1.59,20.14 1.49,20.16 1.38,20.15 1.28,20.14 1.18,20.10 1.08,20.06 1.00,19.99 0.93,19.91 0.87,19.82 0.82,19.73 0.80,19.62 0.78,19.52 0.80,19.41 0.82,19.31 0.82,19.31 0.82,19.31 0.83,17.62 0.85,15.92 0.83,15.13 0.81,14.35 0.78,13.69 0.76,13.04 0.70,12.37 0.64,11.70 0.48,10.62 0.33,9.53 0.26,8.93 0.20,8.32 0.03,7.33 -0.13,6.34 -0.21,5.43 -0.29,4.53 -0.52,3.45 -0.74,2.38 -0.70,1.27 -0.66,0.16 -0.67,0.08 -0.68,0.00 -0.67,-0.07 -0.66,-0.16 -0.63,-0.23 -0.60,-0.31 -0.56,-0.38 -0.51,-0.45 -0.45,-0.50 -0.39,-0.56 -0.31,-0.60 -0.24,-0.64 -0.16,-0.66 -0.08,-0.68 -0.00,-0.68 0.08,-0.68 0.16,-0.66 0.24,-0.64 0.31,-0.60 0.38,-0.56 0.45,-0.51 0.51,-0.45 0.55,-0.38 0.60,-0.32 0.63,-0.24 0.66,-0.16 0.66,-0.16 L 0.66,-0.16 Z"></path></g><g transform="translate(300.1237008186735 260.679651561694) rotate(0 -5.403545629137 11.03223899282139)" stroke="none"><path fill="#1e1e1e" d="M 0.14,0.66 Q 0.14,0.66 -0.93,1.31 -2.01,1.96 -2.96,2.08 -3.91,2.20 -4.72,2.26 -5.53,2.32 -6.40,2.34 -7.27,2.37 -7.89,2.38 -8.51,2.39 -9.41,2.29 -10.31,2.20 -10.21,2.91 -10.11,3.61 -10.14,4.38 -10.17,5.15 -10.18,5.74 -10.19,6.34 -10.20,6.97 -10.20,7.61 -10.21,8.75 -10.22,9.90 -10.24,10.08 -10.26,10.25 -10.32,10.42 -10.39,10.59 -10.49,10.74 -10.59,10.88 -10.73,11.00 -10.86,11.12 -11.02,11.20 -11.18,11.28 -11.35,11.33 -11.53,11.37 -11.71,11.37 -11.89,11.37 -12.06,11.32 -12.23,11.28 -12.39,11.20 -12.55,11.11 -12.68,10.99 -12.82,10.87 -12.92,10.73 -13.02,10.58 -13.08,10.41 -13.15,10.24 -13.17,10.06 -13.19,9.89 -11.79,9.04 -10.39,8.18 -9.60,8.12 -8.82,8.06 -8.09,8.04 -7.36,8.01 -6.63,8.15 -5.91,8.28 -4.62,8.49 -3.33,8.69 -2.70,8.92 -2.06,9.14 -0.98,9.99 0.10,10.84 0.68,11.49 1.27,12.13 1.67,12.71 2.07,13.30 2.31,13.96 2.55,14.63 2.64,15.36 2.74,16.09 2.63,16.92 2.52,17.75 2.46,18.29 2.40,18.83 2.00,19.52 1.59,20.21 1.18,20.67 0.76,21.13 0.22,21.55 -0.31,21.96 -0.96,22.20 -1.61,22.44 -2.90,22.75 -4.18,23.05 -5.51,23.30 -6.84,23.55 -8.45,22.94 -10.07,22.33 -10.17,22.29 -10.27,22.26 -10.36,22.19 -10.44,22.12 -10.50,22.04 -10.55,21.95 -10.58,21.84 -10.61,21.74 -10.60,21.63 -10.59,21.53 -10.55,21.43 -10.51,21.33 -10.44,21.25 -10.37,21.17 -10.28,21.12 -10.18,21.07 -10.08,21.05 -9.98,21.03 -9.87,21.04 -9.76,21.05 -9.67,21.10 -9.57,21.15 -9.50,21.22 -9.42,21.30 -9.37,21.39 -9.33,21.49 -9.31,21.59 -9.30,21.70 -9.32,21.80 -9.33,21.90 -9.39,22.00 -9.44,22.09 -9.52,22.16 -9.60,22.23 -9.69,22.28 -9.79,22.32 -9.90,22.33 -10.00,22.34 -10.10,22.31 -10.21,22.29 -10.30,22.23 -10.39,22.17 -10.46,22.09 -10.52,22.01 -10.56,21.91 -10.60,21.81 -10.60,21.70 -10.60,21.60 -10.57,21.50 -10.54,21.40 -10.48,21.31 -10.42,21.22 -10.33,21.16 -10.25,21.10 -10.15,21.06 -10.05,21.03 -9.94,21.03 -9.83,21.04 -9.83,21.04 -9.83,21.04 -8.48,20.70 -7.13,20.37 -6.52,20.33 -5.91,20.30 -4.71,20.10 -3.52,19.90 -2.78,19.68 -2.05,19.46 -1.41,18.91 -0.77,18.35 -0.59,17.81 -0.42,17.28 -0.35,16.38 -0.28,15.49 -0.61,14.79 -0.95,14.09 -1.37,13.60 -1.79,13.11 -2.89,12.34 -4.00,11.57 -4.54,11.43 -5.09,11.30 -6.19,11.13 -7.29,10.96 -7.94,10.98 -8.60,11.00 -9.26,11.05 -9.91,11.09 -10.06,10.50 -10.22,9.90 -10.24,10.08 -10.26,10.25 -10.32,10.42 -10.39,10.59 -10.49,10.74 -10.59,10.88 -10.73,11.00 -10.86,11.12 -11.02,11.20 -11.18,11.28 -11.35,11.33 -11.53,11.37 -11.71,11.37 -11.89,11.37 -12.06,11.32 -12.23,11.28 -12.39,11.20 -12.55,11.11 -12.68,10.99 -12.82,10.87 -12.92,10.73 -13.02,10.58 -13.08,10.41 -13.15,10.24 -13.17,10.07 -13.19,9.89 -13.19,9.27 -13.19,8.66 -13.19,8.12 -13.19,7.59 -13.18,6.93 -13.18,6.28 -13.17,5.66 -13.16,5.05 -13.13,4.19 -13.10,3.33 -12.99,2.46 -12.88,1.58 -12.46,0.95 -12.03,0.32 -11.09,0.00 -10.14,-0.32 -9.35,-0.46 -8.56,-0.61 -7.95,-0.62 -7.34,-0.62 -6.53,-0.64 -5.71,-0.65 -4.99,-0.69 -4.28,-0.73 -3.46,-0.82 -2.65,-0.92 -1.39,-0.79 -0.14,-0.66 -0.06,-0.67 0.01,-0.68 0.09,-0.67 0.17,-0.65 0.25,-0.62 0.33,-0.59 0.39,-0.54 0.46,-0.50 0.51,-0.43 0.57,-0.37 0.60,-0.30 0.64,-0.22 0.66,-0.14 0.67,-0.06 0.67,0.01 0.67,0.09 0.65,0.17 0.63,0.25 0.59,0.32 0.55,0.40 0.49,0.46 0.44,0.52 0.37,0.56 0.30,0.61 0.22,0.63 0.14,0.66 0.14,0.66 L 0.14,0.66 Z"></path></g><g transform="translate(272.65567720389373 262.03053796897825) rotate(0 0.22514773454739156 12.833420869200381)" stroke="none"><path fill="#1e1e1e" d="M 0.66,0 Q 0.66,0 1.08,1.16 1.49,2.33 1.50,3.34 1.50,4.35 1.62,4.90 1.74,5.45 1.82,6.62 1.89,7.79 2.04,8.68 2.19,9.58 2.26,10.29 2.33,11.01 2.36,11.86 2.40,12.71 2.41,13.85 2.43,14.99 2.43,15.85 2.44,16.72 2.44,17.48 2.45,18.24 2.45,18.95 2.45,19.66 2.45,20.35 2.45,21.04 2.00,23.16 1.55,25.27 1.54,25.38 1.52,25.48 1.47,25.57 1.42,25.67 1.34,25.74 1.26,25.81 1.17,25.86 1.07,25.90 0.97,25.92 0.86,25.93 0.76,25.90 0.65,25.88 0.56,25.83 0.47,25.77 0.40,25.69 0.33,25.61 0.29,25.51 0.25,25.41 0.25,25.31 0.24,25.20 0.27,25.10 0.30,25.00 0.36,24.91 0.42,24.82 0.50,24.76 0.59,24.69 0.69,24.66 0.79,24.62 0.90,24.62 1.00,24.62 1.10,24.66 1.20,24.69 1.29,24.76 1.37,24.82 1.43,24.91 1.49,25.00 1.52,25.10 1.55,25.20 1.54,25.31 1.54,25.41 1.50,25.51 1.46,25.61 1.39,25.69 1.32,25.77 1.23,25.83 1.14,25.88 1.03,25.90 0.93,25.93 0.83,25.92 0.72,25.90 0.62,25.86 0.53,25.81 0.45,25.74 0.37,25.67 0.32,25.57 0.27,25.48 0.26,25.38 0.24,25.27 0.24,25.27 0.24,25.27 -0.20,23.16 -0.65,21.04 -0.65,20.35 -0.65,19.66 -0.65,18.95 -0.65,18.25 -0.65,17.49 -0.65,16.74 -0.66,15.88 -0.66,15.02 -0.67,13.92 -0.68,12.82 -0.70,12.06 -0.72,11.31 -0.78,10.68 -0.84,10.05 -0.99,9.00 -1.15,7.95 -1.19,6.98 -1.22,6.01 -1.36,5.18 -1.50,4.36 -1.50,3.34 -1.49,2.33 -1.08,1.16 -0.66,0 -0.65,-0.08 -0.65,-0.16 -0.62,-0.23 -0.59,-0.31 -0.54,-0.37 -0.50,-0.44 -0.44,-0.49 -0.38,-0.55 -0.30,-0.58 -0.23,-0.62 -0.15,-0.64 -0.08,-0.66 0.00,-0.66 0.08,-0.66 0.15,-0.64 0.23,-0.62 0.30,-0.58 0.38,-0.55 0.44,-0.49 0.50,-0.44 0.54,-0.37 0.59,-0.31 0.62,-0.23 0.65,-0.16 0.65,-0.08 0.66,0.00 0.66,0.00 L 0.66,0 Z"></path></g><g transform="translate(241.1349943672613 239.5157645142408) rotate(0 0 4.50295469094749)" stroke="none"><path fill="#1e1e1e" d="M 0.65,0 Q 0.65,0 1.02,1.03 1.38,2.07 1.39,3.28 1.39,4.50 1.02,6.51 0.65,8.52 0.63,8.62 0.62,8.72 0.57,8.82 0.52,8.91 0.44,8.99 0.36,9.06 0.27,9.10 0.17,9.15 0.07,9.16 -0.03,9.17 -0.13,9.15 -0.24,9.13 -0.33,9.07 -0.42,9.02 -0.49,8.93 -0.56,8.85 -0.60,8.75 -0.64,8.66 -0.64,8.55 -0.65,8.44 -0.62,8.34 -0.59,8.24 -0.53,8.15 -0.47,8.06 -0.39,8.00 -0.30,7.93 -0.20,7.90 -0.10,7.87 0.00,7.87 0.10,7.87 0.20,7.90 0.30,7.93 0.39,8.00 0.47,8.06 0.53,8.15 0.59,8.24 0.62,8.34 0.65,8.44 0.64,8.55 0.64,8.66 0.60,8.76 0.56,8.85 0.49,8.93 0.42,9.02 0.33,9.07 0.24,9.13 0.13,9.15 0.03,9.17 -0.07,9.16 -0.17,9.15 -0.27,9.10 -0.36,9.06 -0.44,8.99 -0.52,8.91 -0.57,8.82 -0.62,8.72 -0.63,8.62 -0.65,8.51 -0.65,8.52 -0.65,8.52 -1.02,6.51 -1.39,4.50 -1.39,3.28 -1.38,2.07 -1.02,1.03 -0.65,0 -0.64,-0.07 -0.63,-0.15 -0.61,-0.23 -0.58,-0.30 -0.53,-0.37 -0.49,-0.43 -0.43,-0.48 -0.37,-0.54 -0.30,-0.57 -0.23,-0.61 -0.15,-0.63 -0.07,-0.65 0.00,-0.65 0.07,-0.65 0.15,-0.63 0.23,-0.61 0.30,-0.57 0.37,-0.54 0.43,-0.48 0.49,-0.43 0.53,-0.37 0.58,-0.30 0.61,-0.23 0.63,-0.15 0.64,-0.07 0.65,0.00 0.65,0.00 L 0.65,0 Z"></path></g><g transform="translate(255.0941539091985 259.7790606235045) rotate(0 -2.4766250800211083 13.283716338295108)" stroke="none"><path fill="#1e1e1e" d="M 0.33,0.58 Q 0.33,0.58 -0.46,1.28 -1.26,1.98 -1.84,2.44 -2.42,2.90 -3.74,4.49 -5.06,6.08 -5.45,6.81 -5.84,7.53 -6.13,8.21 -6.42,8.89 -6.69,9.48 -6.96,10.06 -7.05,11.06 -7.15,12.07 -7.31,12.75 -7.48,13.43 -7.39,13.97 -7.31,14.52 -7.27,15.12 -7.24,15.73 -7.11,16.25 -6.98,16.77 -6.91,17.37 -6.84,17.97 -6.54,18.73 -6.23,19.49 -5.79,20.03 -5.34,20.57 -5.00,21.08 -4.66,21.58 -4.39,22.06 -4.12,22.54 -3.56,23.18 -2.99,23.83 -2.68,24.30 -2.37,24.78 -1.70,24.43 -1.03,24.08 -0.42,23.36 0.18,22.63 0.63,21.88 1.08,21.12 1.31,20.31 1.55,19.50 1.74,18.94 1.93,18.38 2.15,17.83 2.38,17.29 2.31,16.43 2.23,15.57 1.92,15.11 1.60,14.64 0.72,14.34 -0.15,14.05 -1.00,13.82 -1.84,13.60 -2.49,13.52 -3.14,13.44 -3.79,13.41 -4.43,13.37 -5.03,13.65 -5.63,13.92 -6.02,14.49 -6.42,15.05 -7.34,16.48 -8.27,17.91 -8.32,18.00 -8.37,18.09 -8.45,18.16 -8.53,18.24 -8.62,18.28 -8.72,18.32 -8.83,18.34 -8.93,18.35 -9.04,18.32 -9.14,18.30 -9.23,18.24 -9.32,18.19 -9.39,18.11 -9.46,18.02 -9.50,17.93 -9.53,17.83 -9.54,17.72 -9.54,17.61 -9.51,17.51 -9.49,17.41 -9.43,17.32 -9.36,17.24 -9.28,17.17 -9.19,17.11 -9.09,17.07 -8.99,17.04 -8.89,17.04 -8.78,17.04 -8.68,17.08 -8.58,17.11 -8.50,17.18 -8.41,17.24 -8.35,17.33 -8.29,17.42 -8.27,17.52 -8.24,17.62 -8.24,17.73 -8.25,17.84 -8.29,17.94 -8.33,18.03 -8.40,18.11 -8.47,18.19 -8.56,18.25 -8.65,18.30 -8.76,18.32 -8.86,18.35 -8.97,18.33 -9.07,18.32 -9.17,18.28 -9.26,18.23 -9.34,18.16 -9.42,18.08 -9.47,17.99 -9.52,17.90 -9.53,17.79 -9.55,17.69 -9.53,17.58 -9.51,17.48 -9.51,17.48 -9.51,17.48 -9.24,15.44 -8.97,13.40 -8.64,12.88 -8.31,12.36 -7.81,11.82 -7.30,11.28 -6.56,10.86 -5.81,10.44 -5.04,10.30 -4.27,10.16 -3.49,10.21 -2.72,10.26 -1.86,10.38 -1.00,10.50 -0.11,10.75 0.77,10.99 1.79,11.36 2.82,11.72 3.34,12.12 3.87,12.52 4.35,13.15 4.83,13.77 5.03,14.46 5.23,15.14 5.30,16.00 5.38,16.85 5.02,18.10 4.66,19.35 4.29,20.30 3.92,21.26 3.74,21.89 3.56,22.51 3.27,23.01 2.97,23.50 2.60,24.03 2.24,24.55 1.86,24.95 1.48,25.34 1.01,25.86 0.54,26.37 -0.18,26.79 -0.91,27.21 -2.10,27.25 -3.29,27.29 -3.97,26.79 -4.66,26.28 -5.16,25.63 -5.65,24.97 -6.08,24.43 -6.51,23.88 -6.95,23.13 -7.39,22.37 -8.07,21.46 -8.74,20.55 -8.96,20.03 -9.17,19.51 -9.40,18.43 -9.63,17.36 -9.79,16.61 -9.94,15.86 -9.97,15.31 -9.99,14.75 -9.90,13.31 -9.81,11.88 -9.74,11.05 -9.68,10.22 -9.51,9.59 -9.35,8.95 -9.08,8.40 -8.82,7.84 -8.46,7.05 -8.10,6.26 -7.58,5.36 -7.05,4.45 -5.85,3.10 -4.65,1.76 -4.21,1.42 -3.77,1.08 -3.06,0.58 -2.35,0.08 -1.34,-0.25 -0.33,-0.58 -0.25,-0.61 -0.18,-0.64 -0.10,-0.66 -0.02,-0.67 0.05,-0.66 0.13,-0.66 0.21,-0.63 0.29,-0.60 0.36,-0.56 0.42,-0.52 0.48,-0.46 0.54,-0.40 0.58,-0.33 0.62,-0.26 0.64,-0.18 0.66,-0.10 0.66,-0.02 0.67,0.05 0.65,0.13 0.63,0.21 0.60,0.29 0.56,0.36 0.51,0.42 0.46,0.48 0.40,0.53 0.33,0.58 0.33,0.58 L 0.33,0.58 Z"></path></g><g transform="translate(218.6202209125238 237.71458263786178) rotate(0 0.22514773454736314 3.8275114873053724)" stroke="none"><path fill="#1e1e1e" d="M 0.65,-0.07 Q 0.65,-0.07 1.13,1.05 1.60,2.18 1.66,2.96 1.72,3.74 1.20,5.53 0.68,7.31 0.65,7.41 0.63,7.52 0.57,7.61 0.52,7.70 0.43,7.77 0.35,7.83 0.25,7.87 0.15,7.91 0.05,7.91 -0.05,7.91 -0.15,7.88 -0.25,7.85 -0.34,7.79 -0.43,7.73 -0.49,7.65 -0.55,7.56 -0.58,7.46 -0.62,7.36 -0.61,7.25 -0.61,7.14 -0.58,7.04 -0.54,6.94 -0.47,6.86 -0.41,6.78 -0.32,6.72 -0.23,6.66 -0.13,6.64 -0.03,6.61 0.07,6.62 0.18,6.63 0.27,6.67 0.37,6.71 0.45,6.78 0.53,6.85 0.58,6.94 0.64,7.03 0.66,7.14 0.68,7.24 0.67,7.35 0.65,7.45 0.61,7.55 0.56,7.64 0.49,7.72 0.41,7.79 0.32,7.84 0.22,7.89 0.12,7.90 0.01,7.92 -0.08,7.90 -0.19,7.88 -0.28,7.83 -0.37,7.78 -0.45,7.70 -0.52,7.62 -0.56,7.52 -0.60,7.43 -0.61,7.32 -0.62,7.22 -0.62,7.22 -0.62,7.22 -0.80,5.57 -0.99,3.93 -1.04,3.20 -1.09,2.48 -0.87,1.27 -0.65,0.07 -0.65,-0.00 -0.65,-0.08 -0.63,-0.16 -0.61,-0.24 -0.57,-0.31 -0.53,-0.38 -0.48,-0.43 -0.43,-0.49 -0.36,-0.54 -0.30,-0.58 -0.22,-0.61 -0.15,-0.64 -0.07,-0.65 0.00,-0.66 0.08,-0.64 0.16,-0.63 0.23,-0.61 0.31,-0.58 0.37,-0.53 0.44,-0.48 0.49,-0.42 0.54,-0.36 0.58,-0.29 0.61,-0.22 0.63,-0.15 0.65,-0.07 0.65,-0.07 L 0.65,-0.07 Z"></path></g><g transform="translate(224.9243574798503 260.2293560925993) rotate(0 4.9532501600422165 5.853841098231754)" stroke="none"><path fill="#1e1e1e" d="M 0.62,0.31 Q 0.62,0.31 0.42,1.18 0.22,2.05 -0.02,2.72 -0.28,3.39 -0.21,4.27 -0.14,5.14 -0.13,5.99 -0.12,6.84 -0.11,7.59 -0.10,8.34 -0.08,8.92 -0.07,9.50 0.48,9.59 1.04,9.68 1.77,9.70 2.49,9.72 3.07,9.61 3.64,9.50 4.40,9.44 5.16,9.38 6.01,9.36 6.86,9.33 7.47,9.32 8.08,9.31 9.62,9.55 11.16,9.79 11.27,9.79 11.37,9.78 11.47,9.81 11.57,9.84 11.66,9.91 11.75,9.97 11.81,10.05 11.87,10.14 11.90,10.24 11.94,10.34 11.93,10.45 11.93,10.55 11.90,10.65 11.86,10.75 11.79,10.84 11.73,10.92 11.64,10.98 11.55,11.04 11.45,11.06 11.34,11.09 11.24,11.08 11.13,11.07 11.03,11.03 10.94,10.99 10.86,10.92 10.78,10.85 10.72,10.76 10.67,10.66 10.65,10.56 10.63,10.46 10.64,10.35 10.66,10.24 10.70,10.15 10.75,10.05 10.83,9.98 10.90,9.90 11.00,9.86 11.09,9.81 11.20,9.79 11.30,9.78 11.40,9.80 11.51,9.82 11.60,9.87 11.69,9.92 11.77,10.00 11.84,10.08 11.88,10.17 11.92,10.27 11.93,10.38 11.94,10.48 11.92,10.59 11.89,10.69 11.83,10.78 11.78,10.87 11.70,10.94 11.61,11.00 11.51,11.04 11.41,11.08 11.41,11.08 11.41,11.08 9.77,11.70 8.13,12.32 7.53,12.33 6.94,12.34 6.16,12.35 5.38,12.37 4.76,12.41 4.13,12.45 3.27,12.58 2.41,12.71 1.58,12.68 0.75,12.65 0.02,12.57 -0.69,12.48 -1.32,12.09 -1.94,11.70 -2.28,10.60 -2.62,9.50 -2.61,8.92 -2.60,8.35 -2.59,7.60 -2.57,6.85 -2.57,6.00 -2.56,5.15 -2.50,3.87 -2.44,2.58 -2.11,1.81 -1.78,1.05 -1.20,0.36 -0.62,-0.31 -0.57,-0.38 -0.53,-0.45 -0.47,-0.51 -0.40,-0.56 -0.33,-0.60 -0.26,-0.64 -0.17,-0.67 -0.09,-0.69 -0.01,-0.69 0.07,-0.69 0.15,-0.67 0.23,-0.65 0.31,-0.62 0.38,-0.58 0.45,-0.52 0.51,-0.47 0.56,-0.40 0.61,-0.33 0.64,-0.25 0.67,-0.18 0.68,-0.09 0.69,-0.01 0.69,0.07 0.68,0.15 0.65,0.23 0.62,0.31 0.62,0.31 L 0.62,0.31 Z"></path></g><g transform="translate(231.2284940471768 261.1299470307888) rotate(0 0.6754432036420894 10.807091258274)" stroke="none"><path fill="#1e1e1e" d="M 0.68,0.08 Q 0.68,0.08 0.78,1.14 0.88,2.21 0.85,3.00 0.82,3.80 0.95,4.83 1.09,5.86 1.15,6.89 1.22,7.92 1.36,8.49 1.50,9.06 1.70,9.70 1.89,10.34 2.01,11.53 2.13,12.73 2.18,13.59 2.22,14.45 2.36,15.10 2.50,15.74 2.58,16.37 2.65,17.01 2.54,19.10 2.43,21.19 2.42,21.30 2.41,21.41 2.36,21.50 2.32,21.60 2.25,21.67 2.17,21.75 2.08,21.80 1.98,21.85 1.88,21.86 1.77,21.88 1.67,21.86 1.56,21.84 1.47,21.79 1.38,21.74 1.30,21.67 1.23,21.59 1.19,21.49 1.14,21.39 1.13,21.29 1.12,21.18 1.15,21.08 1.17,20.98 1.23,20.89 1.28,20.79 1.36,20.73 1.44,20.66 1.54,20.62 1.64,20.58 1.75,20.58 1.86,20.57 1.96,20.60 2.06,20.63 2.15,20.69 2.23,20.75 2.30,20.84 2.36,20.92 2.39,21.02 2.43,21.12 2.43,21.23 2.43,21.34 2.39,21.44 2.36,21.54 2.29,21.62 2.23,21.70 2.14,21.76 2.05,21.82 1.95,21.85 1.84,21.88 1.74,21.87 1.63,21.86 1.53,21.82 1.44,21.78 1.35,21.71 1.27,21.64 1.22,21.55 1.17,21.46 1.14,21.36 1.12,21.25 1.12,21.25 1.12,21.25 0.44,18.76 -0.23,16.27 -0.37,15.42 -0.52,14.57 -0.55,13.75 -0.57,12.93 -0.62,12.00 -0.66,11.06 -0.85,10.34 -1.04,9.62 -1.19,8.83 -1.35,8.04 -1.38,7.07 -1.40,6.10 -1.48,4.87 -1.56,3.65 -1.48,2.79 -1.40,1.92 -1.04,0.92 -0.68,-0.08 -0.66,-0.16 -0.64,-0.24 -0.60,-0.32 -0.56,-0.39 -0.51,-0.45 -0.45,-0.51 -0.38,-0.56 -0.31,-0.61 -0.24,-0.64 -0.16,-0.67 -0.08,-0.68 0.00,-0.69 0.08,-0.67 0.16,-0.66 0.24,-0.63 0.32,-0.60 0.39,-0.56 0.45,-0.51 0.51,-0.45 0.56,-0.38 0.60,-0.31 0.64,-0.24 0.66,-0.16 0.68,-0.08 0.68,0.00 0.68,0.08 0.68,0.08 L 0.68,0.08 Z"></path></g><g transform="translate(207.36283418515507 261.5802424998835) rotate(0 -1.3508864072842925 12.383125400105598)" stroke="none"><path fill="#1e1e1e" d="M 0.09,0.65 Q 0.09,0.65 -0.78,0.99 -1.65,1.32 -2.21,1.52 -2.77,1.72 -3.44,2.26 -4.12,2.81 -4.47,3.45 -4.83,4.09 -5.06,4.87 -5.30,5.66 -5.06,6.51 -4.82,7.37 -4.49,7.87 -4.16,8.38 -3.61,8.20 -3.06,8.02 -2.50,7.62 -1.93,7.23 -1.62,6.68 -1.32,6.13 -1.06,5.53 -0.80,4.93 -0.52,3.85 -0.25,2.77 -0.18,2.24 -0.10,1.72 -0.04,1.56 0.02,1.41 0.12,1.28 0.23,1.14 0.36,1.03 0.49,0.93 0.64,0.86 0.80,0.79 0.96,0.75 1.13,0.72 1.30,0.73 1.46,0.74 1.63,0.78 1.79,0.83 1.93,0.92 2.08,1.00 2.20,1.12 2.32,1.24 2.41,1.38 2.50,1.53 2.55,1.69 2.61,1.85 2.62,2.01 2.63,2.18 2.60,2.35 2.57,2.52 2.88,3.60 3.18,4.69 3.22,5.55 3.26,6.40 3.27,7.15 3.29,7.89 3.29,8.73 3.30,9.57 3.31,10.57 3.31,11.57 3.43,12.27 3.56,12.96 3.62,13.76 3.68,14.56 3.71,15.28 3.73,16.01 4.02,16.83 4.30,17.64 4.42,18.41 4.54,19.17 4.58,19.73 4.62,20.30 4.64,20.94 4.65,21.57 4.62,21.55 4.59,21.53 4.60,21.61 4.61,21.69 4.59,21.77 4.58,21.85 4.55,21.92 4.52,21.99 4.47,22.06 4.43,22.12 4.37,22.17 4.30,22.22 4.23,22.25 4.16,22.29 4.08,22.31 4.01,22.32 3.93,22.32 3.85,22.32 3.77,22.29 3.70,22.27 3.63,22.23 3.56,22.19 3.50,22.14 3.44,22.09 3.40,22.02 3.36,21.95 3.33,21.88 3.31,21.80 3.34,21.57 3.38,21.34 3.45,21.26 3.51,21.18 3.60,21.12 3.69,21.06 3.79,21.04 3.90,21.01 4.00,21.02 4.11,21.03 4.21,21.07 4.30,21.11 4.38,21.18 4.46,21.25 4.51,21.35 4.57,21.44 4.59,21.54 4.61,21.65 4.59,21.75 4.58,21.86 4.53,21.95 4.48,22.05 4.41,22.12 4.33,22.20 4.24,22.25 4.14,22.29 4.04,22.31 3.93,22.32 3.83,22.30 3.73,22.28 3.63,22.23 3.54,22.18 3.47,22.10 3.40,22.02 3.36,21.92 3.31,21.83 3.31,21.72 3.30,21.61 3.32,21.51 3.35,21.41 3.40,21.32 3.46,21.23 3.54,21.16 3.63,21.10 3.73,21.06 3.83,21.02 3.93,21.02 4.04,21.02 4.14,21.05 4.24,21.08 4.33,21.14 4.41,21.20 4.48,21.29 4.54,21.37 4.57,21.48 4.60,21.58 4.60,21.68 4.60,21.79 4.59,21.66 4.59,21.53 4.60,21.61 4.61,21.69 4.59,21.77 4.58,21.85 4.55,21.92 4.52,21.99 4.47,22.06 4.43,22.12 4.37,22.17 4.30,22.22 4.23,22.25 4.16,22.29 4.08,22.31 4.01,22.32 3.93,22.32 3.85,22.32 3.77,22.29 3.70,22.27 3.63,22.23 3.56,22.19 3.50,22.14 3.44,22.09 3.40,22.02 3.36,21.95 3.33,21.88 3.31,21.80 2.60,22.51 1.90,23.22 1.75,22.44 1.60,21.65 1.58,21.08 1.57,20.50 1.50,19.61 1.44,18.71 1.22,18.13 1.01,17.56 0.85,16.84 0.69,16.13 0.67,15.46 0.65,14.78 0.60,14.11 0.55,13.44 0.41,12.51 0.27,11.58 0.27,10.58 0.27,9.59 0.27,8.77 0.27,7.95 0.26,7.23 0.25,6.51 0.23,5.75 0.20,5.00 0.16,4.41 0.11,3.83 0.00,2.77 -0.10,1.72 -0.04,1.56 0.02,1.41 0.12,1.28 0.23,1.14 0.36,1.04 0.49,0.93 0.64,0.86 0.79,0.79 0.96,0.75 1.13,0.72 1.30,0.73 1.46,0.74 1.63,0.78 1.79,0.83 1.93,0.92 2.08,1.00 2.20,1.12 2.32,1.24 2.41,1.38 2.50,1.53 2.55,1.69 2.61,1.85 2.62,2.01 2.63,2.18 2.60,2.35 2.57,2.52 2.49,3.04 2.41,3.56 2.23,4.14 2.06,4.72 1.88,5.38 1.71,6.05 1.37,6.80 1.03,7.54 0.53,8.33 0.03,9.11 -0.50,9.60 -1.04,10.09 -1.58,10.33 -2.13,10.57 -2.99,10.79 -3.85,11.01 -4.85,10.72 -5.85,10.43 -6.38,9.86 -6.91,9.29 -7.14,8.73 -7.37,8.17 -7.56,7.54 -7.75,6.90 -7.83,6.07 -7.90,5.24 -7.73,4.47 -7.56,3.70 -7.30,3.24 -7.04,2.77 -6.74,2.31 -6.44,1.84 -5.62,1.07 -4.80,0.29 -4.11,-0.08 -3.42,-0.46 -2.69,-0.63 -1.96,-0.80 -1.02,-0.73 -0.09,-0.65 -0.01,-0.65 0.06,-0.65 0.14,-0.64 0.22,-0.62 0.29,-0.58 0.36,-0.55 0.42,-0.50 0.48,-0.44 0.53,-0.38 0.57,-0.32 0.60,-0.24 0.63,-0.17 0.65,-0.09 0.66,-0.01 0.65,0.06 0.64,0.14 0.61,0.22 0.59,0.29 0.54,0.36 0.50,0.42 0.44,0.48 0.38,0.53 0.31,0.57 0.24,0.61 0.17,0.63 0.09,0.65 0.09,0.65 L 0.09,0.65 Z"></path></g><g transform="translate(191.15219729774407 258.42817421622027) rotate(0 -1.5760341418316273 11.257386727368726)" stroke="none"><path fill="#1e1e1e" d="M 0.09,0.65 Q 0.09,0.65 -0.75,1.10 -1.60,1.56 -2.37,2.05 -3.14,2.54 -3.45,3.18 -3.76,3.83 -4.02,4.74 -4.27,5.65 -4.47,6.22 -4.67,6.79 -4.90,8.03 -5.13,9.27 -5.18,9.84 -5.23,10.41 -5.26,11.04 -5.28,11.67 -5.30,12.94 -5.31,14.21 -5.31,14.78 -5.32,15.36 -5.32,15.99 -5.32,16.62 -5.32,17.28 -5.31,17.94 -5.32,18.47 -5.32,19.00 -5.05,19.85 -4.78,20.71 -4.30,21.03 -3.83,21.35 -3.04,21.27 -2.26,21.19 -1.34,20.89 -0.42,20.58 -0.10,20.08 0.21,19.58 0.72,19.13 1.23,18.69 1.60,18.08 1.97,17.47 1.89,16.73 1.81,15.98 1.51,15.22 1.22,14.45 0.65,14.39 0.08,14.32 -0.44,14.41 -0.97,14.50 -1.71,14.87 -2.45,15.24 -2.97,15.53 -3.48,15.82 -4.76,16.51 -6.03,17.20 -6.10,17.28 -6.17,17.36 -6.27,17.41 -6.36,17.46 -6.46,17.48 -6.57,17.50 -6.67,17.49 -6.78,17.47 -6.87,17.43 -6.97,17.38 -7.04,17.30 -7.12,17.23 -7.16,17.13 -7.21,17.04 -7.22,16.93 -7.24,16.82 -7.22,16.72 -7.20,16.62 -7.14,16.52 -7.09,16.43 -7.01,16.36 -6.93,16.29 -6.83,16.25 -6.74,16.21 -6.63,16.20 -6.52,16.19 -6.42,16.22 -6.32,16.25 -6.23,16.30 -6.14,16.36 -6.07,16.44 -6.01,16.53 -5.97,16.63 -5.94,16.73 -5.93,16.83 -5.93,16.94 -5.96,17.04 -5.99,17.14 -6.06,17.23 -6.12,17.31 -6.21,17.38 -6.29,17.44 -6.40,17.47 -6.50,17.50 -6.60,17.49 -6.71,17.49 -6.81,17.45 -6.91,17.42 -6.99,17.35 -7.07,17.28 -7.13,17.19 -7.19,17.10 -7.21,17.00 -7.24,16.90 -7.23,16.79 -7.22,16.68 -7.17,16.59 -7.13,16.49 -7.13,16.49 -7.13,16.49 -5.64,14.55 -4.14,12.61 -3.43,12.19 -2.71,11.77 -1.98,11.59 -1.25,11.40 -0.25,11.35 0.75,11.30 1.60,11.57 2.45,11.83 3.15,12.46 3.86,13.08 4.12,13.68 4.37,14.28 4.55,14.94 4.73,15.59 4.80,16.44 4.86,17.29 4.67,18.09 4.47,18.89 4.17,19.39 3.87,19.89 3.22,20.56 2.56,21.24 2.20,21.74 1.84,22.24 1.26,22.73 0.68,23.22 0.07,23.46 -0.53,23.69 -1.26,23.87 -1.99,24.06 -3.07,24.11 -4.14,24.16 -4.80,23.93 -5.46,23.70 -5.99,23.30 -6.52,22.90 -6.99,22.27 -7.47,21.65 -7.67,21.00 -7.88,20.36 -8.03,19.69 -8.18,19.02 -8.18,18.48 -8.18,17.93 -8.18,17.28 -8.18,16.62 -8.18,15.98 -8.18,15.35 -8.17,14.77 -8.17,14.19 -8.16,13.43 -8.16,12.67 -8.14,12.11 -8.13,11.55 -8.09,10.83 -8.06,10.11 -7.97,9.35 -7.88,8.58 -7.72,8.00 -7.57,7.42 -7.45,6.65 -7.33,5.87 -6.96,4.90 -6.60,3.92 -6.44,3.29 -6.28,2.66 -5.93,1.97 -5.58,1.29 -5.12,0.78 -4.66,0.28 -4.17,-0.02 -3.69,-0.32 -2.85,-0.68 -2.01,-1.04 -1.05,-0.84 -0.09,-0.65 -0.01,-0.65 0.06,-0.66 0.14,-0.64 0.22,-0.62 0.29,-0.59 0.36,-0.55 0.42,-0.50 0.48,-0.45 0.53,-0.38 0.58,-0.32 0.61,-0.24 0.64,-0.17 0.65,-0.09 0.66,-0.01 0.65,0.06 0.64,0.14 0.62,0.22 0.59,0.29 0.55,0.36 0.50,0.42 0.44,0.48 0.38,0.53 0.31,0.57 0.24,0.61 0.17,0.63 0.09,0.65 0.09,0.65 L 0.09,0.65 Z"></path></g><g transform="translate(155.1285597701641 237.26428716876705) rotate(0 -0.22514773454739156 4.277806956400127)" stroke="none"><path fill="#1e1e1e" d="M 0.66,0.07 Q 0.66,0.07 0.88,1.27 1.10,2.48 1.05,3.33 1.00,4.18 0.81,6.17 0.62,8.17 0.61,8.27 0.60,8.38 0.56,8.48 0.52,8.58 0.45,8.66 0.38,8.74 0.29,8.79 0.20,8.84 0.10,8.87 -0.00,8.89 -0.10,8.88 -0.21,8.86 -0.30,8.82 -0.40,8.77 -0.48,8.70 -0.55,8.63 -0.60,8.53 -0.65,8.44 -0.67,8.33 -0.68,8.23 -0.67,8.12 -0.65,8.02 -0.60,7.92 -0.55,7.83 -0.47,7.76 -0.39,7.69 -0.29,7.64 -0.20,7.60 -0.09,7.59 0.00,7.58 0.11,7.60 0.21,7.62 0.30,7.68 0.39,7.74 0.46,7.82 0.53,7.90 0.57,8.00 0.61,8.10 0.61,8.20 0.62,8.31 0.59,8.41 0.56,8.51 0.50,8.60 0.44,8.69 0.35,8.75 0.27,8.81 0.16,8.85 0.06,8.88 -0.03,8.88 -0.14,8.88 -0.24,8.84 -0.34,8.81 -0.42,8.74 -0.51,8.68 -0.57,8.59 -0.63,8.50 -0.65,8.40 -0.68,8.30 -0.68,8.30 -0.68,8.30 -1.21,6.15 -1.74,4.01 -1.68,3.09 -1.61,2.17 -1.13,1.05 -0.66,-0.07 -0.64,-0.15 -0.62,-0.22 -0.58,-0.30 -0.55,-0.37 -0.49,-0.43 -0.44,-0.49 -0.37,-0.53 -0.31,-0.58 -0.24,-0.61 -0.16,-0.64 -0.08,-0.65 -0.00,-0.66 0.07,-0.65 0.15,-0.64 0.22,-0.61 0.30,-0.59 0.36,-0.54 0.43,-0.50 0.48,-0.44 0.54,-0.38 0.58,-0.31 0.61,-0.24 0.63,-0.16 0.65,-0.08 0.65,-0.00 0.66,0.07 0.66,0.07 L 0.66,0.07 Z"></path></g><g transform="translate(158.28062805382734 262.48083343807303) rotate(0 8.330466178252863 7.655022974610716)" stroke="none"><path fill="#1e1e1e" d="M -0.18,-0.67 Q -0.18,-0.67 1.14,-1.40 2.47,-2.14 3.45,-2.44 4.42,-2.74 5.33,-2.89 6.23,-3.04 6.90,-3.22 7.57,-3.39 8.21,-3.49 8.86,-3.59 9.56,-3.74 10.26,-3.90 11.51,-4.46 12.75,-5.02 14.22,-4.97 15.69,-4.93 16.51,-4.15 17.32,-3.37 17.51,-2.27 17.69,-1.17 17.57,-0.41 17.45,0.34 17.11,1.34 16.78,2.34 16.39,3.39 15.99,4.44 15.69,5.16 15.38,5.88 14.98,6.73 14.59,7.57 14.10,8.28 13.62,8.99 13.10,9.99 12.58,11.00 12.11,11.83 11.64,12.67 11.19,13.56 10.73,14.44 10.27,15.34 9.81,16.23 9.07,17.85 8.33,19.47 8.31,19.58 8.28,19.68 8.23,19.77 8.17,19.86 8.09,19.93 8.01,20.00 7.91,20.03 7.81,20.07 7.70,20.08 7.60,20.08 7.49,20.05 7.39,20.02 7.30,19.96 7.22,19.90 7.15,19.81 7.09,19.73 7.06,19.63 7.03,19.53 7.03,19.42 7.03,19.31 7.06,19.21 7.10,19.11 7.17,19.03 7.23,18.95 7.32,18.89 7.41,18.83 7.51,18.80 7.61,18.78 7.72,18.78 7.83,18.79 7.92,18.83 8.02,18.87 8.10,18.94 8.18,19.01 8.24,19.10 8.29,19.19 8.31,19.30 8.33,19.40 8.32,19.51 8.31,19.61 8.26,19.71 8.21,19.80 8.14,19.88 8.07,19.96 7.97,20.01 7.88,20.05 7.77,20.07 7.67,20.09 7.56,20.07 7.46,20.05 7.36,20.00 7.27,19.95 7.20,19.87 7.13,19.79 7.08,19.69 7.04,19.60 7.03,19.49 7.02,19.38 7.02,19.38 7.02,19.38 7.04,17.12 7.06,14.85 7.50,13.94 7.95,13.03 8.42,12.11 8.88,11.19 9.14,10.71 9.40,10.22 9.95,9.42 10.49,8.61 10.76,7.92 11.03,7.22 11.40,6.72 11.76,6.23 12.13,5.44 12.50,4.66 12.78,3.99 13.07,3.33 13.45,2.33 13.83,1.32 14.21,0.15 14.59,-1.01 14.21,-1.62 13.84,-2.24 12.37,-1.63 10.89,-1.01 9.58,-0.79 8.27,-0.56 7.47,-0.37 6.67,-0.18 5.96,-0.08 5.24,0.01 4.23,0.30 3.22,0.59 1.70,0.63 0.18,0.67 0.10,0.68 0.01,0.69 -0.06,0.68 -0.14,0.67 -0.22,0.65 -0.30,0.62 -0.37,0.57 -0.44,0.53 -0.50,0.47 -0.56,0.40 -0.60,0.33 -0.64,0.26 -0.66,0.18 -0.68,0.10 -0.69,0.01 -0.69,-0.06 -0.67,-0.14 -0.65,-0.23 -0.61,-0.30 -0.58,-0.38 -0.52,-0.44 -0.47,-0.50 -0.40,-0.55 -0.33,-0.60 -0.26,-0.63 -0.18,-0.67 -0.18,-0.67 L -0.18,-0.67 Z"></path></g><g transform="translate(146.1226503882691 280.04235673276827) rotate(0 -0.6754432036421463 -0.900590938189481)" stroke="none"><path fill="#1e1e1e" d="M -1.30,-0.64 Q -1.30,-0.64 -1.35,-0.73 -1.40,-0.83 -1.41,-0.93 -1.43,-1.03 -1.41,-1.14 -1.39,-1.24 -1.34,-1.34 -1.29,-1.43 -1.21,-1.50 -1.14,-1.58 -1.04,-1.62 -0.94,-1.66 -0.84,-1.68 -0.73,-1.69 -0.63,-1.66 -0.52,-1.64 -0.43,-1.58 -0.34,-1.53 -0.28,-1.45 -0.21,-1.37 -0.17,-1.27 -0.13,-1.17 -0.12,-1.06 -0.12,-0.96 -0.15,-0.85 -0.18,-0.75 -0.24,-0.66 -0.30,-0.58 -0.38,-0.51 -0.47,-0.45 -0.57,-0.42 -0.67,-0.38 -0.78,-0.38 -0.88,-0.38 -0.98,-0.42 -1.08,-0.45 -1.17,-0.52 -1.25,-0.58 -1.31,-0.67 -1.37,-0.76 -1.40,-0.86 -1.43,-0.96 -1.42,-1.07 -1.41,-1.18 -1.37,-1.27 -1.33,-1.37 -1.26,-1.45 -1.19,-1.53 -1.10,-1.59 -1.01,-1.64 -0.91,-1.66 -0.80,-1.69 -0.70,-1.67 -0.59,-1.66 -0.50,-1.62 -0.40,-1.57 -0.32,-1.50 -0.25,-1.42 -0.25,-1.42 -0.25,-1.42 -0.07,-1.43 0.09,-1.44 0.26,-1.41 0.44,-1.38 0.60,-1.30 0.75,-1.23 0.89,-1.12 1.03,-1.01 1.14,-0.88 1.24,-0.74 1.31,-0.58 1.38,-0.42 1.41,-0.24 1.44,-0.07 1.43,0.09 1.42,0.27 1.37,0.43 1.31,0.60 1.22,0.75 1.13,0.90 1.01,1.02 0.88,1.14 0.73,1.23 0.58,1.32 0.41,1.37 0.25,1.42 -0.52,0.39 L -1.30,-0.64 Z"></path></g><g transform="translate(120.90610411896307 279.14176579457876) rotate(0 0.22514773454739156 -1.3508864072842357)" stroke="none"><path fill="#1e1e1e" d="M -0.66,-0.11 Q -0.66,-0.11 -0.47,-1.21 -0.27,-2.32 -0.24,-2.42 -0.21,-2.52 -0.14,-2.60 -0.08,-2.69 0.00,-2.75 0.09,-2.81 0.19,-2.83 0.29,-2.86 0.40,-2.86 0.51,-2.85 0.61,-2.81 0.70,-2.77 0.78,-2.70 0.87,-2.63 0.92,-2.54 0.97,-2.45 1.00,-2.35 1.02,-2.24 1.01,-2.14 1.00,-2.03 0.95,-1.94 0.91,-1.84 0.83,-1.76 0.76,-1.68 0.67,-1.64 0.57,-1.59 0.47,-1.57 0.36,-1.55 0.26,-1.57 0.15,-1.59 0.06,-1.64 -0.02,-1.69 -0.10,-1.76 -0.17,-1.84 -0.21,-1.94 -0.26,-2.03 -0.27,-2.14 -0.28,-2.25 -0.26,-2.35 -0.24,-2.45 -0.18,-2.54 -0.13,-2.64 -0.04,-2.70 0.03,-2.77 0.13,-2.81 0.22,-2.85 0.33,-2.86 0.44,-2.86 0.54,-2.83 0.64,-2.80 0.73,-2.74 0.82,-2.68 0.88,-2.60 0.95,-2.51 0.98,-2.41 1.01,-2.31 1.01,-2.21 1.01,-2.10 1.01,-2.10 1.01,-2.10 0.84,-0.99 0.66,0.11 0.64,0.18 0.62,0.26 0.57,0.33 0.53,0.40 0.48,0.46 0.42,0.52 0.35,0.56 0.28,0.61 0.20,0.63 0.13,0.66 0.05,0.66 -0.02,0.67 -0.11,0.66 -0.19,0.64 -0.26,0.61 -0.34,0.58 -0.40,0.53 -0.46,0.48 -0.52,0.42 -0.57,0.35 -0.60,0.28 -0.64,0.21 -0.65,0.13 -0.67,0.05 -0.66,-0.02 -0.66,-0.11 -0.66,-0.11 L -0.66,-0.11 Z"></path></g><g transform="translate(101.9936944169836 279.5920612636735) rotate(0 -0.4502954690947547 -1.1257386727368726)" stroke="none"><path fill="#1e1e1e" d="M -1.34,-1.60 Q -1.34,-1.60 -1.37,-1.70 -1.39,-1.80 -1.38,-1.91 -1.37,-2.01 -1.32,-2.11 -1.28,-2.21 -1.20,-2.28 -1.13,-2.36 -1.04,-2.41 -0.94,-2.46 -0.84,-2.48 -0.73,-2.50 -0.63,-2.48 -0.52,-2.46 -0.43,-2.41 -0.34,-2.36 -0.26,-2.29 -0.19,-2.21 -0.15,-2.11 -0.10,-2.02 -0.09,-1.91 -0.08,-1.81 -0.10,-1.70 -0.12,-1.60 -0.18,-1.51 -0.23,-1.42 -0.31,-1.35 -0.39,-1.28 -0.49,-1.24 -0.59,-1.20 -0.70,-1.19 -0.80,-1.19 -0.91,-1.22 -1.01,-1.24 -1.10,-1.30 -1.18,-1.36 -1.25,-1.45 -1.31,-1.53 -1.35,-1.63 -1.38,-1.73 -1.38,-1.84 -1.38,-1.95 -1.35,-2.05 -1.31,-2.15 -1.25,-2.23 -1.19,-2.32 -1.10,-2.38 -1.01,-2.44 -0.91,-2.46 -0.80,-2.49 -0.70,-2.49 -0.59,-2.48 -0.49,-2.44 -0.39,-2.40 -0.31,-2.33 -0.23,-2.27 -0.18,-2.17 -0.12,-2.08 -0.12,-2.08 -0.12,-2.08 0.12,-2.07 0.37,-2.05 0.61,-1.98 0.85,-1.90 1.07,-1.77 1.28,-1.64 1.46,-1.47 1.64,-1.29 1.77,-1.07 1.90,-0.86 1.98,-0.61 2.05,-0.37 2.07,-0.12 2.08,0.12 2.04,0.37 1.99,0.62 1.89,0.85 1.79,1.08 1.63,1.27 1.48,1.47 1.28,1.63 1.08,1.78 0.85,1.89 0.62,1.99 0.37,2.04 0.12,2.08 -0.60,0.24 L -1.34,-1.60 Z"></path></g><g transform="translate(240.3457728012769 10) rotate(0 31.640625 21.599999999999994)"><text x="0" y="0" font-family="Cascadia, Segoe UI Emoji" font-size="36px" fill="#1e1e1e" text-anchor="start" style="white-space: pre;" direction="ltr" dominant-baseline="text-before-edge">195</text></g><g transform="translate(240.61927774789956 43.42171796164678) rotate(0 31.640625 21.599999999999994)"><text x="0" y="0" font-family="Cascadia, Segoe UI Emoji" font-size="36px" fill="#1e1e1e" text-anchor="start" style="white-space: pre;" direction="ltr" dominant-baseline="text-before-edge">327</text></g><g stroke-linecap="round"><g transform="translate(250.44053123057847 87.8625962666166) rotate(0 25.901352559824772 0)"><path d="M-0.79 0.05 C7.87 -0.13, 42.05 -1.09, 50.76 -1.02 M1 -0.97 C10.12 -1.04, 44.67 0.09, 52.92 -0.02" stroke="#1e1e1e" stroke-width="2" fill="none"></path></g></g><mask></mask><g transform="translate(316.2023958921652 67.17594016282374) rotate(0 10.356795789179273 -0.6754432036420894)" stroke="none"><path fill="#1e1e1e" d="M -0.15,-0.67 Q -0.15,-0.67 0.94,-1.24 2.04,-1.80 2.98,-1.94 3.93,-2.07 4.73,-2.13 5.54,-2.20 6.44,-2.35 7.35,-2.50 8.06,-2.58 8.78,-2.65 9.62,-2.69 10.47,-2.73 11.34,-2.74 12.21,-2.76 13.10,-2.77 13.99,-2.78 14.76,-2.79 15.52,-2.80 16.24,-2.80 16.95,-2.80 18.62,-2.40 20.28,-2.00 20.38,-1.99 20.49,-1.97 20.58,-1.92 20.68,-1.87 20.75,-1.79 20.82,-1.71 20.87,-1.62 20.91,-1.52 20.92,-1.42 20.94,-1.31 20.91,-1.21 20.89,-1.10 20.84,-1.01 20.78,-0.92 20.70,-0.85 20.62,-0.78 20.52,-0.74 20.42,-0.70 20.32,-0.70 20.21,-0.69 20.11,-0.72 20.00,-0.75 19.92,-0.81 19.83,-0.87 19.76,-0.95 19.70,-1.04 19.67,-1.14 19.63,-1.24 19.63,-1.35 19.63,-1.45 19.67,-1.55 19.70,-1.65 19.76,-1.74 19.83,-1.82 19.92,-1.88 20.00,-1.94 20.11,-1.97 20.21,-2.00 20.32,-1.99 20.42,-1.99 20.52,-1.95 20.62,-1.91 20.70,-1.84 20.78,-1.77 20.84,-1.68 20.89,-1.59 20.91,-1.49 20.94,-1.38 20.92,-1.28 20.91,-1.17 20.87,-1.07 20.82,-0.98 20.75,-0.90 20.68,-0.82 20.58,-0.77 20.49,-0.72 20.38,-0.71 20.28,-0.69 20.28,-0.69 20.28,-0.69 18.62,-0.29 16.95,0.10 16.24,0.10 15.53,0.10 14.77,0.10 14.01,0.10 13.13,0.10 12.25,0.09 11.41,0.10 10.56,0.10 9.80,0.12 9.04,0.13 8.41,0.19 7.78,0.24 6.74,0.39 5.70,0.53 4.98,0.56 4.26,0.59 3.44,0.68 2.61,0.77 1.38,0.72 0.15,0.67 0.06,0.68 -0.01,0.69 -0.09,0.67 -0.18,0.66 -0.25,0.63 -0.33,0.60 -0.40,0.55 -0.47,0.50 -0.52,0.44 -0.57,0.37 -0.61,0.30 -0.65,0.23 -0.67,0.14 -0.68,0.06 -0.68,-0.01 -0.68,-0.09 -0.66,-0.17 -0.64,-0.26 -0.60,-0.33 -0.56,-0.40 -0.50,-0.46 -0.44,-0.52 -0.37,-0.57 -0.30,-0.61 -0.22,-0.64 -0.15,-0.67 -0.15,-0.67 L -0.15,-0.67 Z"></path></g><g transform="translate(326.10889621224976 55.918553435455124) rotate(0 1.1257386727368726 9.90650032008449)" stroke="none"><path fill="#1e1e1e" d="M 0.66,-0.16 Q 0.66,-0.16 1.22,0.79 1.78,1.75 2.03,2.85 2.29,3.96 2.41,5.01 2.53,6.06 2.71,6.94 2.88,7.82 2.96,8.53 3.05,9.23 3.21,10.26 3.38,11.28 3.45,12.03 3.53,12.77 3.57,13.50 3.60,14.23 3.60,15.06 3.60,15.89 2.84,17.80 2.07,19.71 2.02,19.80 1.97,19.90 1.90,19.97 1.82,20.04 1.72,20.09 1.63,20.14 1.52,20.15 1.42,20.16 1.31,20.14 1.21,20.12 1.12,20.07 1.02,20.02 0.95,19.94 0.88,19.86 0.84,19.76 0.80,19.66 0.79,19.55 0.79,19.45 0.81,19.35 0.84,19.24 0.90,19.15 0.96,19.06 1.04,19.00 1.12,18.93 1.22,18.90 1.32,18.86 1.43,18.86 1.54,18.86 1.64,18.89 1.74,18.92 1.82,18.99 1.91,19.05 1.97,19.13 2.03,19.22 2.06,19.32 2.09,19.43 2.09,19.53 2.08,19.64 2.05,19.74 2.01,19.84 1.94,19.92 1.87,20.00 1.78,20.06 1.69,20.11 1.59,20.14 1.49,20.16 1.38,20.15 1.28,20.14 1.18,20.10 1.08,20.06 1.00,19.99 0.93,19.91 0.87,19.82 0.82,19.73 0.80,19.62 0.78,19.52 0.80,19.41 0.82,19.31 0.82,19.31 0.82,19.31 0.83,17.62 0.85,15.92 0.83,15.13 0.81,14.35 0.78,13.69 0.76,13.04 0.70,12.37 0.64,11.70 0.48,10.62 0.33,9.53 0.26,8.93 0.20,8.32 0.03,7.33 -0.13,6.34 -0.21,5.43 -0.29,4.53 -0.52,3.45 -0.74,2.38 -0.70,1.27 -0.66,0.16 -0.67,0.08 -0.68,0.00 -0.67,-0.07 -0.66,-0.16 -0.63,-0.23 -0.60,-0.31 -0.56,-0.38 -0.51,-0.45 -0.45,-0.50 -0.39,-0.56 -0.31,-0.60 -0.24,-0.64 -0.16,-0.66 -0.08,-0.68 -0.00,-0.68 0.08,-0.68 0.16,-0.66 0.24,-0.64 0.31,-0.60 0.38,-0.56 0.45,-0.51 0.51,-0.45 0.55,-0.38 0.60,-0.32 0.63,-0.24 0.66,-0.16 0.66,-0.16 L 0.66,-0.16 Z"></path></g><g transform="translate(33.39030375289434 24.69010076302027) rotate(0 92.25991821289062 50)"><text x="92.25991821289062" y="0" font-family="Virgil, Segoe UI Emoji" font-size="20px" fill="#1e1e1e" text-anchor="middle" style="white-space: pre;" direction="ltr" dominant-baseline="text-before-edge">Does making the</text><text x="92.25991821289062" y="25" font-family="Virgil, Segoe UI Emoji" font-size="20px" fill="#1e1e1e" text-anchor="middle" style="white-space: pre;" direction="ltr" dominant-baseline="text-before-edge">numbers bigger</text><text x="92.25991821289062" y="50" font-family="Virgil, Segoe UI Emoji" font-size="20px" fill="#1e1e1e" text-anchor="middle" style="white-space: pre;" direction="ltr" dominant-baseline="text-before-edge">really demonstrate</text><text x="92.25991821289062" y="75" font-family="Virgil, Segoe UI Emoji" font-size="20px" fill="#1e1e1e" text-anchor="middle" style="white-space: pre;" direction="ltr" dominant-baseline="text-before-edge">better reasoning?</text></g><g transform="translate(22.205460996040586 200.60355083498928) rotate(0 0.00004999999998744897 0.00004999999998744897)" stroke="none"><path fill="#1e1e1e" d="M 0.78,-0.78 Q 0.78,-0.78 0.88,-0.63 0.99,-0.49 1.04,-0.32 1.10,-0.14 1.09,0.02 1.09,0.20 1.02,0.37 0.96,0.54 0.85,0.68 0.74,0.82 0.59,0.92 0.43,1.02 0.26,1.06 0.09,1.10 -0.08,1.09 -0.26,1.07 -0.43,1.00 -0.59,0.93 -0.73,0.81 -0.86,0.69 -0.95,0.53 -1.04,0.38 -1.07,0.20 -1.10,0.02 -1.08,-0.14 -1.06,-0.32 -0.98,-0.48 -0.90,-0.64 -0.77,-0.77 -0.64,-0.90 -0.48,-0.98 -0.32,-1.06 -0.14,-1.08 0.03,-1.10 0.20,-1.07 0.38,-1.04 0.53,-0.95 0.69,-0.86 0.81,-0.73 0.93,-0.59 1.00,-0.43 1.07,-0.26 1.09,-0.08 1.10,0.09 1.06,0.26 1.01,0.43 0.92,0.59 0.82,0.74 0.68,0.85 0.54,0.96 0.37,1.02 0.20,1.09 0.02,1.09 -0.15,1.10 -0.32,1.04 -0.49,0.99 -0.63,0.88 -0.78,0.78 -0.78,0.78 -0.78,0.78 -0.86,0.67 -0.95,0.57 -1.00,0.45 -1.06,0.33 -1.08,0.19 -1.10,0.06 -1.10,-0.06 -1.09,-0.20 -1.05,-0.32 -1.01,-0.45 -0.94,-0.57 -0.87,-0.68 -0.77,-0.77 -0.68,-0.87 -0.57,-0.94 -0.45,-1.01 -0.32,-1.05 -0.20,-1.09 -0.06,-1.10 0.06,-1.10 0.19,-1.08 0.33,-1.06 0.45,-1.00 0.57,-0.95 0.67,-0.86 0.78,-0.78 0.78,-0.78 L 0.78,-0.78 Z"></path></g><g transform="translate(16.474870399221743 201.05943540497242) rotate(0 0.00004999999998744897 0.00004999999998744897)" stroke="none"><path fill="#1e1e1e" d="M 0.78,-0.78 Q 0.78,-0.78 0.88,-0.63 0.99,-0.49 1.04,-0.32 1.10,-0.14 1.09,0.02 1.09,0.20 1.02,0.37 0.96,0.54 0.85,0.68 0.74,0.82 0.59,0.92 0.43,1.02 0.26,1.06 0.09,1.10 -0.08,1.09 -0.26,1.07 -0.43,1.00 -0.59,0.93 -0.73,0.81 -0.86,0.69 -0.95,0.53 -1.04,0.38 -1.07,0.20 -1.10,0.02 -1.08,-0.14 -1.06,-0.32 -0.98,-0.48 -0.90,-0.64 -0.77,-0.77 -0.64,-0.90 -0.48,-0.98 -0.32,-1.06 -0.14,-1.08 0.03,-1.10 0.20,-1.07 0.38,-1.04 0.53,-0.95 0.69,-0.86 0.81,-0.73 0.93,-0.59 1.00,-0.43 1.07,-0.26 1.09,-0.08 1.10,0.09 1.06,0.26 1.01,0.43 0.92,0.59 0.82,0.74 0.68,0.85 0.54,0.96 0.37,1.02 0.20,1.09 0.02,1.09 -0.15,1.10 -0.32,1.04 -0.49,0.99 -0.63,0.88 -0.78,0.78 -0.78,0.78 -0.78,0.78 -0.86,0.67 -0.95,0.57 -1.00,0.45 -1.06,0.33 -1.08,0.19 -1.10,0.06 -1.10,-0.06 -1.09,-0.20 -1.05,-0.32 -1.01,-0.45 -0.94,-0.57 -0.87,-0.68 -0.77,-0.77 -0.68,-0.87 -0.57,-0.94 -0.45,-1.01 -0.32,-1.05 -0.20,-1.09 -0.06,-1.10 0.06,-1.10 0.19,-1.08 0.33,-1.06 0.45,-1.00 0.57,-0.95 0.67,-0.86 0.78,-0.78 0.78,-0.78 L 0.78,-0.78 Z"></path></g><g transform="translate(10.58123385695427 200.40976454933786) rotate(0 0.00004999999998744897 0.00004999999998744897)" stroke="none"><path fill="#1e1e1e" d="M 0.78,-0.78 Q 0.78,-0.78 0.88,-0.63 0.99,-0.49 1.04,-0.32 1.10,-0.14 1.09,0.02 1.09,0.20 1.02,0.37 0.96,0.54 0.85,0.68 0.74,0.82 0.59,0.92 0.43,1.02 0.26,1.06 0.09,1.10 -0.08,1.09 -0.26,1.07 -0.43,1.00 -0.59,0.93 -0.73,0.81 -0.86,0.69 -0.95,0.53 -1.04,0.38 -1.07,0.20 -1.10,0.02 -1.08,-0.14 -1.06,-0.32 -0.98,-0.48 -0.90,-0.64 -0.77,-0.77 -0.64,-0.90 -0.48,-0.98 -0.32,-1.06 -0.14,-1.08 0.03,-1.10 0.20,-1.07 0.38,-1.04 0.53,-0.95 0.69,-0.86 0.81,-0.73 0.93,-0.59 1.00,-0.43 1.07,-0.26 1.09,-0.08 1.10,0.09 1.06,0.26 1.01,0.43 0.92,0.59 0.82,0.74 0.68,0.85 0.54,0.96 0.37,1.02 0.20,1.09 0.02,1.09 -0.15,1.10 -0.32,1.04 -0.49,0.99 -0.63,0.88 -0.78,0.78 -0.78,0.78 -0.78,0.78 -0.86,0.67 -0.95,0.57 -1.00,0.45 -1.06,0.33 -1.08,0.19 -1.10,0.06 -1.10,-0.06 -1.09,-0.20 -1.05,-0.32 -1.01,-0.45 -0.94,-0.57 -0.87,-0.68 -0.77,-0.77 -0.68,-0.87 -0.57,-0.94 -0.45,-1.01 -0.32,-1.05 -0.20,-1.09 -0.06,-1.10 0.06,-1.10 0.19,-1.08 0.33,-1.06 0.45,-1.00 0.57,-0.95 0.67,-0.86 0.78,-0.78 0.78,-0.78 L 0.78,-0.78 Z"></path></g><g transform="translate(21.624227139086315 236.11992825268817) rotate(0 0.00004999999998744897 0.00004999999998744897)" stroke="none"><path fill="#1e1e1e" d="M 0.78,-0.78 Q 0.78,-0.78 0.88,-0.63 0.99,-0.49 1.04,-0.32 1.10,-0.14 1.09,0.02 1.09,0.20 1.02,0.37 0.96,0.54 0.85,0.68 0.74,0.82 0.59,0.92 0.43,1.02 0.26,1.06 0.09,1.10 -0.08,1.09 -0.26,1.07 -0.43,1.00 -0.59,0.93 -0.73,0.81 -0.86,0.69 -0.95,0.53 -1.04,0.38 -1.07,0.20 -1.10,0.02 -1.08,-0.14 -1.06,-0.32 -0.98,-0.48 -0.90,-0.64 -0.77,-0.77 -0.64,-0.90 -0.48,-0.98 -0.32,-1.06 -0.14,-1.08 0.03,-1.10 0.20,-1.07 0.38,-1.04 0.53,-0.95 0.69,-0.86 0.81,-0.73 0.93,-0.59 1.00,-0.43 1.07,-0.26 1.09,-0.08 1.10,0.09 1.06,0.26 1.01,0.43 0.92,0.59 0.82,0.74 0.68,0.85 0.54,0.96 0.37,1.02 0.20,1.09 0.02,1.09 -0.15,1.10 -0.32,1.04 -0.49,0.99 -0.63,0.88 -0.78,0.78 -0.78,0.78 -0.78,0.78 -0.86,0.67 -0.95,0.57 -1.00,0.45 -1.06,0.33 -1.08,0.19 -1.10,0.06 -1.10,-0.06 -1.09,-0.20 -1.05,-0.32 -1.01,-0.45 -0.94,-0.57 -0.87,-0.68 -0.77,-0.77 -0.68,-0.87 -0.57,-0.94 -0.45,-1.01 -0.32,-1.05 -0.20,-1.09 -0.06,-1.10 0.06,-1.10 0.19,-1.08 0.33,-1.06 0.45,-1.00 0.57,-0.95 0.67,-0.86 0.78,-0.78 0.78,-0.78 L 0.78,-0.78 Z"></path></g><g transform="translate(15.699900256616047 235.99460396571686) rotate(0 0.00004999999998744897 0.00004999999998744897)" stroke="none"><path fill="#1e1e1e" d="M 0.78,-0.78 Q 0.78,-0.78 0.88,-0.63 0.99,-0.49 1.04,-0.32 1.10,-0.14 1.09,0.02 1.09,0.20 1.02,0.37 0.96,0.54 0.85,0.68 0.74,0.82 0.59,0.92 0.43,1.02 0.26,1.06 0.09,1.10 -0.08,1.09 -0.26,1.07 -0.43,1.00 -0.59,0.93 -0.73,0.81 -0.86,0.69 -0.95,0.53 -1.04,0.38 -1.07,0.20 -1.10,0.02 -1.08,-0.14 -1.06,-0.32 -0.98,-0.48 -0.90,-0.64 -0.77,-0.77 -0.64,-0.90 -0.48,-0.98 -0.32,-1.06 -0.14,-1.08 0.03,-1.10 0.20,-1.07 0.38,-1.04 0.53,-0.95 0.69,-0.86 0.81,-0.73 0.93,-0.59 1.00,-0.43 1.07,-0.26 1.09,-0.08 1.10,0.09 1.06,0.26 1.01,0.43 0.92,0.59 0.82,0.74 0.68,0.85 0.54,0.96 0.37,1.02 0.20,1.09 0.02,1.09 -0.15,1.10 -0.32,1.04 -0.49,0.99 -0.63,0.88 -0.78,0.78 -0.78,0.78 -0.78,0.78 -0.86,0.67 -0.95,0.57 -1.00,0.45 -1.06,0.33 -1.08,0.19 -1.10,0.06 -1.10,-0.06 -1.09,-0.20 -1.05,-0.32 -1.01,-0.45 -0.94,-0.57 -0.87,-0.68 -0.77,-0.77 -0.68,-0.87 -0.57,-0.94 -0.45,-1.01 -0.32,-1.05 -0.20,-1.09 -0.06,-1.10 0.06,-1.10 0.19,-1.08 0.33,-1.06 0.45,-1.00 0.57,-0.95 0.67,-0.86 0.78,-0.78 0.78,-0.78 L 0.78,-0.78 Z"></path></g><g transform="translate(10 235.92614196703676) rotate(0 0.00004999999998744897 0.00004999999998744897)" stroke="none"><path fill="#1e1e1e" d="M 0.78,-0.78 Q 0.78,-0.78 0.88,-0.63 0.99,-0.49 1.04,-0.32 1.10,-0.14 1.09,0.02 1.09,0.20 1.02,0.37 0.96,0.54 0.85,0.68 0.74,0.82 0.59,0.92 0.43,1.02 0.26,1.06 0.09,1.10 -0.08,1.09 -0.26,1.07 -0.43,1.00 -0.59,0.93 -0.73,0.81 -0.86,0.69 -0.95,0.53 -1.04,0.38 -1.07,0.20 -1.10,0.02 -1.08,-0.14 -1.06,-0.32 -0.98,-0.48 -0.90,-0.64 -0.77,-0.77 -0.64,-0.90 -0.48,-0.98 -0.32,-1.06 -0.14,-1.08 0.03,-1.10 0.20,-1.07 0.38,-1.04 0.53,-0.95 0.69,-0.86 0.81,-0.73 0.93,-0.59 1.00,-0.43 1.07,-0.26 1.09,-0.08 1.10,0.09 1.06,0.26 1.01,0.43 0.92,0.59 0.82,0.74 0.68,0.85 0.54,0.96 0.37,1.02 0.20,1.09 0.02,1.09 -0.15,1.10 -0.32,1.04 -0.49,0.99 -0.63,0.88 -0.78,0.78 -0.78,0.78 -0.78,0.78 -0.86,0.67 -0.95,0.57 -1.00,0.45 -1.06,0.33 -1.08,0.19 -1.10,0.06 -1.10,-0.06 -1.09,-0.20 -1.05,-0.32 -1.01,-0.45 -0.94,-0.57 -0.87,-0.68 -0.77,-0.77 -0.68,-0.87 -0.57,-0.94 -0.45,-1.01 -0.32,-1.05 -0.20,-1.09 -0.06,-1.10 0.06,-1.10 0.19,-1.08 0.33,-1.06 0.45,-1.00 0.57,-0.95 0.67,-0.86 0.78,-0.78 0.78,-0.78 L 0.78,-0.78 Z"></path></g><g transform="translate(293.23588862717344 98.45087829270187) rotate(0 6.83532371260938 5.82683332878176)" stroke="none"><path fill="#1e1e1e" d="M -0.33,-0.58 Q -0.33,-0.58 -0.08,-1.19 0.16,-1.79 1.03,-2.12 1.89,-2.45 2.76,-2.52 3.63,-2.60 4.46,-2.41 5.29,-2.22 5.91,-1.79 6.53,-1.37 7.03,-1.01 7.54,-0.65 8.18,-0.04 8.83,0.57 9.14,1.10 9.45,1.63 9.70,2.38 9.95,3.12 10.07,3.78 10.19,4.43 9.97,5.23 9.75,6.02 9.29,6.60 8.83,7.19 8.16,7.82 7.49,8.45 6.96,8.86 6.43,9.26 5.75,9.64 5.07,10.03 4.47,10.49 3.87,10.95 3.38,11.31 2.89,11.67 2.69,11.12 2.49,10.56 3.05,10.51 3.60,10.46 4.19,10.49 4.78,10.53 5.78,10.63 6.78,10.73 7.57,10.74 8.35,10.76 9.23,10.76 10.10,10.77 12.44,11.45 14.78,12.13 14.86,12.20 14.94,12.27 14.99,12.36 15.04,12.45 15.07,12.56 15.09,12.66 15.07,12.77 15.06,12.87 15.02,12.97 14.97,13.06 14.90,13.14 14.82,13.22 14.73,13.26 14.63,13.31 14.53,13.33 14.42,13.34 14.32,13.33 14.21,13.31 14.12,13.26 14.03,13.21 13.96,13.13 13.88,13.05 13.84,12.95 13.80,12.86 13.79,12.75 13.78,12.65 13.80,12.54 13.82,12.44 13.88,12.35 13.94,12.26 14.02,12.19 14.10,12.12 14.20,12.08 14.30,12.05 14.40,12.04 14.51,12.04 14.61,12.07 14.71,12.10 14.80,12.16 14.89,12.22 14.95,12.30 15.01,12.39 15.05,12.49 15.08,12.59 15.08,12.70 15.08,12.80 15.04,12.90 15.01,13.00 14.94,13.09 14.88,13.17 14.79,13.23 14.70,13.29 14.60,13.31 14.49,13.34 14.39,13.33 14.28,13.33 14.18,13.29 14.09,13.25 14.09,13.25 14.09,13.25 12.09,13.56 10.09,13.87 9.20,13.87 8.31,13.87 7.47,13.85 6.63,13.82 5.91,13.78 5.19,13.74 4.56,13.66 3.94,13.58 3.04,13.43 2.13,13.28 1.60,13.11 1.06,12.93 0.72,12.52 0.38,12.10 0.35,11.04 0.31,9.99 0.90,9.39 1.49,8.79 1.95,8.49 2.41,8.18 2.94,7.76 3.46,7.34 4.20,6.90 4.94,6.45 5.46,6.06 5.98,5.67 6.58,5.16 7.17,4.64 7.07,4.06 6.97,3.49 6.63,2.84 6.29,2.20 5.86,1.80 5.44,1.39 4.85,1.00 4.26,0.61 3.65,0.51 3.03,0.40 2.33,0.58 1.63,0.76 0.98,0.67 0.33,0.58 0.25,0.61 0.18,0.64 0.10,0.66 0.02,0.67 -0.05,0.66 -0.13,0.65 -0.21,0.63 -0.29,0.60 -0.35,0.56 -0.42,0.51 -0.48,0.46 -0.54,0.40 -0.58,0.33 -0.62,0.26 -0.64,0.18 -0.66,0.10 -0.66,0.02 -0.67,-0.05 -0.65,-0.13 -0.63,-0.21 -0.60,-0.28 -0.56,-0.36 -0.51,-0.42 -0.46,-0.48 -0.39,-0.53 -0.33,-0.58 -0.33,-0.58 L -0.33,-0.58 Z"></path></g><g transform="translate(263.65350403489686 78.95339753870144) rotate(0 -0.11205448709193888 2.8013621772988984)" stroke="none"><path fill="#1e1e1e" d="M 0.65,0.06 Q 0.65,0.06 0.88,0.73 1.12,1.41 0.86,3.33 0.60,5.25 0.60,5.36 0.60,5.47 0.57,5.57 0.54,5.67 0.47,5.75 0.41,5.84 0.32,5.90 0.23,5.96 0.13,5.99 0.03,6.01 -0.07,6.01 -0.17,6.00 -0.27,5.96 -0.37,5.93 -0.45,5.86 -0.53,5.79 -0.59,5.70 -0.64,5.61 -0.67,5.50 -0.69,5.40 -0.68,5.29 -0.67,5.19 -0.62,5.09 -0.58,4.99 -0.51,4.92 -0.43,4.84 -0.34,4.79 -0.24,4.74 -0.14,4.72 -0.04,4.71 0.06,4.72 0.16,4.74 0.26,4.79 0.35,4.84 0.43,4.92 0.50,4.99 0.54,5.09 0.59,5.18 0.60,5.29 0.61,5.40 0.59,5.50 0.57,5.60 0.51,5.69 0.46,5.79 0.38,5.85 0.30,5.92 0.20,5.96 0.10,6.00 -0.00,6.01 -0.10,6.01 -0.21,5.99 -0.31,5.96 -0.40,5.90 -0.48,5.84 -0.55,5.75 -0.61,5.67 -0.65,5.57 -0.68,5.47 -0.68,5.47 -0.68,5.47 -1.03,3.31 -1.37,1.16 -1.01,0.54 -0.65,-0.06 -0.63,-0.14 -0.62,-0.22 -0.58,-0.29 -0.54,-0.36 -0.49,-0.42 -0.44,-0.48 -0.38,-0.53 -0.31,-0.57 -0.24,-0.60 -0.17,-0.63 -0.09,-0.64 -0.01,-0.65 0.06,-0.65 0.14,-0.64 0.21,-0.61 0.29,-0.58 0.35,-0.54 0.42,-0.50 0.48,-0.44 0.53,-0.38 0.57,-0.31 0.61,-0.24 0.63,-0.16 0.65,-0.09 0.65,-0.01 0.65,0.06 0.65,0.06 L 0.65,0.06 Z"></path></g><g transform="translate(269.7044463378625 98.45087829270187) rotate(0 7.843814096436972 5.938887815873727)" stroke="none"><path fill="#1e1e1e" d="M -0.59,-0.34 Q -0.59,-0.34 -0.60,-0.98 -0.61,-1.63 -0.10,-2.05 0.40,-2.47 1.00,-2.65 1.60,-2.83 2.48,-2.91 3.37,-2.99 4.09,-2.95 4.81,-2.90 5.57,-2.79 6.33,-2.68 6.84,-2.49 7.36,-2.30 8.08,-1.89 8.79,-1.49 9.33,-1.05 9.86,-0.60 10.26,-0.10 10.67,0.38 10.99,1.03 11.32,1.68 11.38,2.63 11.44,3.58 11.24,4.42 11.03,5.25 10.70,5.93 10.37,6.61 9.94,7.38 9.50,8.15 9.11,8.68 8.71,9.22 8.15,9.86 7.59,10.49 7.01,11.01 6.43,11.52 6.04,11.98 5.65,12.44 5.57,11.79 5.49,11.14 6.09,11.05 6.68,10.95 7.39,10.96 8.09,10.97 8.99,10.98 9.89,10.98 10.46,10.97 11.03,10.97 11.75,10.97 12.47,10.97 14.25,11.91 16.02,12.86 16.08,12.94 16.15,13.02 16.18,13.12 16.22,13.22 16.22,13.33 16.22,13.44 16.19,13.54 16.15,13.64 16.09,13.72 16.02,13.81 15.94,13.87 15.85,13.93 15.75,13.96 15.65,13.99 15.54,13.98 15.43,13.98 15.33,13.94 15.24,13.90 15.15,13.83 15.07,13.77 15.02,13.67 14.96,13.58 14.94,13.48 14.91,13.38 14.92,13.27 14.94,13.17 14.98,13.07 15.02,12.97 15.10,12.89 15.17,12.82 15.26,12.77 15.35,12.72 15.46,12.70 15.56,12.68 15.67,12.70 15.77,12.71 15.87,12.76 15.96,12.81 16.04,12.89 16.11,12.96 16.16,13.06 16.20,13.16 16.21,13.26 16.23,13.37 16.20,13.47 16.18,13.57 16.13,13.67 16.07,13.76 15.99,13.83 15.91,13.90 15.81,13.94 15.72,13.98 15.61,13.98 15.50,13.99 15.40,13.96 15.30,13.93 15.21,13.88 15.12,13.82 15.12,13.82 15.12,13.82 13.80,13.97 12.47,14.12 11.75,14.12 11.03,14.12 10.45,14.11 9.88,14.11 8.97,14.11 8.06,14.10 7.27,14.08 6.48,14.06 5.48,13.90 4.49,13.74 3.74,12.96 2.99,12.17 3.48,10.93 3.96,9.70 4.64,9.02 5.32,8.35 5.71,7.93 6.10,7.51 6.51,6.97 6.91,6.43 7.21,5.91 7.52,5.39 7.85,4.73 8.18,4.07 8.34,3.45 8.49,2.84 8.25,2.34 8.01,1.85 7.40,1.29 6.78,0.72 6.23,0.47 5.67,0.22 5.10,0.13 4.54,0.04 3.64,-0.02 2.74,-0.08 2.19,-0.12 1.64,-0.17 1.12,0.08 0.59,0.34 0.54,0.40 0.49,0.47 0.43,0.52 0.37,0.58 0.29,0.61 0.22,0.65 0.13,0.67 0.05,0.68 -0.02,0.68 -0.10,0.68 -0.18,0.65 -0.26,0.63 -0.33,0.59 -0.41,0.55 -0.47,0.49 -0.53,0.43 -0.57,0.36 -0.62,0.29 -0.64,0.21 -0.67,0.14 -0.68,0.05 -0.68,-0.02 -0.67,-0.10 -0.66,-0.18 -0.63,-0.26 -0.59,-0.34 -0.59,-0.34 L -0.59,-0.34 Z"></path></g><g transform="translate(239.22562584885029 76.26408984849445) rotate(0 0.4482179483678266 3.5857435869426126)" stroke="none"><path fill="#1e1e1e" d="M 0.68,0.06 Q 0.68,0.06 0.91,0.74 1.15,1.41 1.21,2.22 1.28,3.03 1.47,4.90 1.66,6.76 1.68,6.86 1.71,6.97 1.70,7.07 1.69,7.18 1.65,7.28 1.61,7.37 1.53,7.45 1.46,7.53 1.37,7.58 1.28,7.64 1.17,7.66 1.07,7.68 0.96,7.66 0.86,7.65 0.76,7.60 0.67,7.55 0.59,7.48 0.52,7.40 0.47,7.31 0.42,7.21 0.41,7.11 0.40,7.00 0.42,6.90 0.44,6.79 0.49,6.70 0.54,6.61 0.62,6.54 0.70,6.47 0.80,6.42 0.90,6.38 1.00,6.37 1.11,6.37 1.21,6.39 1.31,6.42 1.40,6.47 1.49,6.53 1.56,6.62 1.63,6.70 1.66,6.80 1.70,6.90 1.70,7.00 1.70,7.11 1.67,7.21 1.64,7.31 1.58,7.40 1.52,7.49 1.43,7.55 1.34,7.61 1.24,7.64 1.14,7.67 1.03,7.67 0.93,7.66 0.83,7.63 0.73,7.59 0.65,7.52 0.56,7.46 0.51,7.37 0.45,7.28 0.45,7.28 0.45,7.28 -0.43,5.20 -1.33,3.12 -1.37,2.14 -1.40,1.16 -1.04,0.54 -0.68,-0.06 -0.67,-0.15 -0.65,-0.23 -0.61,-0.30 -0.57,-0.38 -0.52,-0.44 -0.46,-0.50 -0.40,-0.55 -0.33,-0.60 -0.25,-0.63 -0.17,-0.66 -0.09,-0.67 -0.01,-0.69 0.06,-0.68 0.15,-0.67 0.22,-0.64 0.30,-0.61 0.37,-0.57 0.44,-0.52 0.50,-0.46 0.56,-0.40 0.60,-0.33 0.64,-0.25 0.66,-0.17 0.68,-0.09 0.68,-0.01 0.68,0.06 0.68,0.06 L 0.68,0.06 Z"></path></g><g transform="translate(260.9641963446899 97.55444239596625) rotate(0 -6.275051277149586 8.06792307062085)" stroke="none"><path fill="#1e1e1e" d="M -0.31,0.62 Q -0.31,0.62 -0.99,0.69 -1.66,0.76 -2.27,0.60 -2.88,0.44 -3.60,0.43 -4.33,0.42 -4.89,0.43 -5.44,0.44 -6.36,0.54 -7.28,0.64 -7.83,0.72 -8.38,0.79 -9.12,0.85 -9.86,0.91 -9.45,1.69 -9.04,2.47 -9.05,3.30 -9.07,4.12 -8.99,4.86 -8.90,5.60 -8.79,6.51 -8.69,7.43 -8.68,7.70 -8.67,7.97 -8.67,8.17 -8.68,8.37 -8.73,8.56 -8.79,8.75 -8.89,8.93 -8.99,9.10 -9.12,9.25 -9.26,9.39 -9.43,9.50 -9.60,9.61 -9.79,9.67 -9.98,9.74 -10.18,9.76 -10.37,9.78 -10.57,9.75 -10.77,9.71 -10.96,9.64 -11.14,9.56 -11.30,9.44 -11.46,9.32 -11.59,9.17 -11.72,9.02 -11.81,8.83 -11.89,8.65 -11.94,8.46 -11.98,8.26 -10.92,7.30 -9.86,6.34 -8.79,6.35 -7.72,6.35 -6.98,6.57 -6.23,6.79 -5.22,7.14 -4.22,7.48 -3.46,7.81 -2.70,8.15 -2.11,8.53 -1.52,8.91 -0.97,9.46 -0.42,10.01 -0.23,10.58 -0.04,11.16 -0.06,11.78 -0.08,12.40 -0.45,13.30 -0.82,14.20 -1.43,14.83 -2.03,15.45 -2.55,15.87 -3.07,16.29 -3.93,16.87 -4.79,17.44 -5.60,17.85 -6.41,18.26 -6.95,18.47 -7.49,18.69 -9.95,18.08 -12.40,17.48 -12.51,17.45 -12.61,17.42 -12.70,17.36 -12.79,17.30 -12.85,17.22 -12.92,17.14 -12.95,17.04 -12.99,16.94 -12.99,16.83 -12.99,16.72 -12.96,16.62 -12.92,16.52 -12.86,16.44 -12.80,16.35 -12.71,16.29 -12.62,16.23 -12.52,16.20 -12.42,16.17 -12.31,16.18 -12.21,16.18 -12.11,16.22 -12.01,16.26 -11.93,16.32 -11.84,16.39 -11.79,16.48 -11.73,16.57 -11.71,16.68 -11.68,16.78 -11.70,16.89 -11.71,16.99 -11.75,17.09 -11.79,17.19 -11.86,17.26 -11.94,17.34 -12.03,17.39 -12.12,17.44 -12.23,17.46 -12.33,17.48 -12.44,17.46 -12.54,17.45 -12.64,17.40 -12.73,17.35 -12.81,17.27 -12.88,17.20 -12.93,17.10 -12.97,17.01 -12.98,16.90 -13.00,16.79 -12.97,16.69 -12.95,16.59 -12.90,16.50 -12.85,16.40 -12.77,16.33 -12.68,16.26 -12.59,16.22 -12.49,16.18 -12.38,16.18 -12.28,16.17 -12.28,16.17 -12.28,16.17 -10.46,15.83 -8.65,15.49 -8.09,15.27 -7.52,15.05 -7.02,14.79 -6.52,14.53 -5.79,14.05 -5.07,13.57 -4.63,13.23 -4.20,12.89 -3.71,12.30 -3.22,11.72 -3.94,11.29 -4.67,10.86 -5.63,10.50 -6.59,10.14 -7.22,9.94 -7.84,9.74 -8.53,9.66 -9.21,9.57 -8.94,8.77 -8.67,7.97 -8.67,8.17 -8.68,8.37 -8.73,8.56 -8.79,8.75 -8.89,8.93 -8.99,9.10 -9.12,9.25 -9.26,9.39 -9.43,9.50 -9.60,9.61 -9.79,9.67 -9.98,9.74 -10.18,9.76 -10.37,9.78 -10.57,9.75 -10.77,9.71 -10.96,9.64 -11.14,9.56 -11.30,9.44 -11.46,9.32 -11.59,9.17 -11.72,9.02 -11.81,8.84 -11.89,8.65 -11.94,8.46 -11.98,8.26 -11.99,8.00 -12.01,7.73 -12.11,7.04 -12.21,6.36 -12.24,5.77 -12.27,5.19 -12.33,4.20 -12.39,3.21 -12.32,2.51 -12.26,1.81 -12.31,1.22 -12.36,0.64 -12.28,0.09 -12.20,-0.45 -11.85,-1.04 -11.50,-1.63 -10.52,-1.98 -9.53,-2.33 -8.87,-2.42 -8.21,-2.51 -7.41,-2.53 -6.62,-2.55 -6.02,-2.61 -5.41,-2.67 -4.82,-2.64 -4.24,-2.62 -3.27,-2.54 -2.30,-2.46 -1.34,-2.12 -0.39,-1.79 -0.04,-1.20 0.31,-0.62 0.38,-0.57 0.45,-0.53 0.50,-0.46 0.56,-0.40 0.60,-0.33 0.64,-0.26 0.66,-0.17 0.69,-0.09 0.69,-0.01 0.69,0.07 0.67,0.15 0.65,0.23 0.61,0.30 0.58,0.38 0.52,0.44 0.47,0.51 0.40,0.56 0.33,0.61 0.25,0.64 0.18,0.67 0.09,0.68 0.01,0.69 -0.06,0.68 -0.15,0.68 -0.23,0.65 -0.31,0.62 -0.31,0.62 L -0.31,0.62 Z"></path></g></svg>